<svg width="360" height="120" viewBox="0 0 360 120" fill="none" xmlns="http://www.w3.org/2000/svg">
<path d="M44.9039 63.9196C43.8813 64.0621 42.8384 63.1641 42.8282 62.1314C42.818 61.0986 43.8406 60.1778 44.8683 60.2999C44.1586 59.7581 43.9754 58.6388 44.4791 57.9011C44.9827 57.1635 46.0893 56.9218 46.8524 57.3848C46.4479 56.4919 46.8575 55.3142 47.73 54.8665C48.6025 54.4162 49.798 54.7672 50.289 55.6143C50.5179 54.4366 51.8686 53.6149 53.021 53.9507C54.1733 54.2865 54.8703 55.7033 54.4302 56.82C55.1119 55.9323 56.6967 56.1867 57.2512 57.1609C57.8057 58.1326 57.4165 59.4554 56.5644 60.1803C55.7122 60.9053 54.5141 61.1139 53.4 61.0045C52.9777 61.9813 51.945 62.663 50.8817 62.663C49.8184 62.663 48.7831 61.9864 48.3583 61.0096C48.7297 61.6175 48.3125 62.5435 47.6104 62.6681C47.178 62.7444 46.7201 62.4595 46.4607 62.1441C46.4022 62.9886 45.7738 63.7975 44.9039 63.9196Z" stroke="#0055B8" stroke-width="1.27187" stroke-miterlimit="10" stroke-linecap="round" stroke-linejoin="round"/>
<path d="M67.7812 53.6037C67.0385 54.3592 67.1835 55.715 67.9288 56.468C67.0614 56.0381 65.8913 56.3815 65.3876 57.2108C64.8865 58.04 65.1256 59.2356 65.9091 59.8054C66.6925 60.3752 67.9033 60.2378 68.5393 59.5078C68.2646 60.4896 68.5952 61.675 69.4728 62.1939C70.3504 62.7129 71.7062 62.2779 71.9428 61.2884C72.2379 62.1609 72.6856 63.0054 73.3876 63.6032C74.0897 64.1984 75.0792 64.5062 75.9594 64.234C76.8395 63.9618 77.5136 63.0257 77.333 62.1227C77.2465 62.5857 77.8316 62.9596 78.2818 62.8222C78.732 62.6849 79.0144 62.2296 79.1518 61.7793C79.5002 60.6448 79.1543 59.3297 78.2945 58.5132C77.4347 57.6966 76.1018 57.4193 74.9877 57.8263C75.5295 57.0352 75.3387 55.8321 74.5781 55.247C73.8175 54.6619 72.6093 54.7866 71.981 55.5115C72.6983 54.6772 68.8471 52.5176 67.7812 53.6037Z" stroke="#0055B8" stroke-width="1.27187" stroke-miterlimit="10" stroke-linecap="round" stroke-linejoin="round"/>
<path d="M53.6092 72.8233C52.958 73.5406 52.7596 74.6344 53.1182 75.5349C53.4769 76.4354 54.3749 77.0942 55.3389 77.1654C56.5065 77.2519 57.6868 76.5524 58.8111 76.8831C59.91 77.2061 60.6884 78.4526 61.8331 78.3915C62.6852 78.3457 63.3034 77.575 64.0868 77.2366C65.1018 76.7966 66.3838 77.0866 67.2691 76.4227C67.9177 75.9343 68.1568 75.0338 68.0246 74.2325C67.8948 73.4312 67.4522 72.7139 66.9562 72.0703" stroke="#0055B8" stroke-width="1.27187" stroke-miterlimit="10" stroke-linecap="round" stroke-linejoin="round"/>
<path d="M49.7281 62.495C49.4279 63.4159 49.7738 64.5275 50.5853 65.0566C51.3968 65.5857 52.6076 65.4178 53.1901 64.647C53.7751 63.8763 53.564 62.6069 52.7271 62.1211" stroke="#0055B8" stroke-width="1.27187" stroke-miterlimit="10" stroke-linecap="round" stroke-linejoin="round"/>
<path d="M68.9236 61.7305C67.9468 62.1756 67.5068 63.5162 68.0333 64.4523C68.5599 65.3884 69.9335 65.7114 70.8212 65.106C71.709 64.5031 71.9125 63.1041 71.2359 62.2723" stroke="#0055B8" stroke-width="1.27187" stroke-miterlimit="10" stroke-linecap="round" stroke-linejoin="round"/>
<path d="M53.5579 76.3712C53.0008 75.7633 51.9578 75.6844 51.3168 76.2033C50.6733 76.7223 50.5283 77.755 51.0039 78.4291C49.8974 78.0577 48.5848 77.8771 47.6411 78.5639C46.6999 79.2507 46.7356 81.0822 47.8751 81.3315C46.705 81.212 45.5375 82.1862 45.4433 83.3589C45.3518 84.5315 46.3514 85.6762 47.5267 85.7424C48.7019 85.8085 49.8237 84.7808 49.8618 83.6056C50.6249 84.6435 52.2148 84.6765 53.3951 84.1576C54.5754 83.6412 55.5267 82.7153 56.6485 82.0768C58.8488 80.8253 61.6978 80.805 63.916 82.0234C64.7834 82.4991 65.5796 83.1579 66.5513 83.3487C67.5204 83.5395 68.744 82.9926 68.7898 82.0056C68.6219 83.1554 69.5707 84.3458 70.7281 84.4425C71.888 84.5392 73.0175 83.5217 73.0429 82.3592C73.0683 81.1967 71.9847 80.1309 70.8222 80.1741C71.7023 79.8892 72.1144 78.6708 71.5904 77.9076C71.0664 77.1445 69.7793 77.0962 69.1993 77.8161C69.6572 77.4472 69.8123 76.7502 69.5529 76.2211C69.2934 75.692 68.6473 75.3893 68.0775 75.5242" stroke="#0055B8" stroke-width="1.27187" stroke-miterlimit="10" stroke-linecap="round" stroke-linejoin="round"/>
<path d="M54.8828 84.471C56.4676 85.107 57.9963 85.9642 59.6854 86.1982C61.377 86.4323 63.3458 85.8396 64.0708 84.293" stroke="#0055B8" stroke-width="1.27187" stroke-miterlimit="10" stroke-linecap="round" stroke-linejoin="round"/>
<path d="M32.0153 64.661C32.1171 63.814 31.3819 63.0076 30.5374 62.8779C29.6929 62.7481 28.8306 63.1958 28.304 63.8674C27.7774 64.5389 27.5409 65.3987 27.4595 66.2483C27.3476 67.4388 27.5154 68.6547 27.9479 69.7714C28.2353 70.5091 28.6474 71.2188 29.2655 71.7173C29.8837 72.2159 30.7231 72.4779 31.4862 72.2693C32.2493 72.0608 32.8776 71.3231 32.8293 70.532" stroke="#0055B8" stroke-width="1.27187" stroke-miterlimit="10" stroke-linecap="round" stroke-linejoin="round"/>
<path d="M85.5433 61.5723C85.3703 60.4455 86.2784 59.3186 87.3951 59.0795C88.5118 58.8404 89.7048 59.3898 90.412 60.2852C91.1191 61.1806 91.3811 62.3685 91.3252 63.5081C91.2209 65.6728 89.977 67.7511 88.1201 68.8652C87.624 69.1628 87.0593 69.3994 86.4844 69.346C85.9096 69.2926 85.3372 68.8678 85.2812 68.2929" stroke="#0055B8" stroke-width="1.27187" stroke-miterlimit="10" stroke-linecap="round" stroke-linejoin="round"/>
<path d="M33.9374 50.8246C31.2004 50.1989 29.1272 47.4211 29.3078 44.6205C29.4884 41.8198 31.8974 39.3295 34.6929 39.0573C34.525 35.8954 35.1508 32.4766 37.3995 30.2483C39.6481 28.02 43.8326 27.6334 45.8243 30.0932C46.0329 27.1399 47.7245 24.3316 50.2326 22.7647C52.7407 21.1977 56.0095 20.9103 58.7541 22.0168C61.2419 18.5471 64.3758 15.2632 68.456 14.0066C72.5361 12.75 77.6846 14.1821 79.4551 18.0689C80.4497 14.6985 84.1585 12.3735 87.6256 12.9407C91.0927 13.508 93.8628 16.8963 93.7331 20.4066C96.0072 18.799 99.2835 18.771 101.586 20.3405C103.888 21.91 105.058 24.9726 104.389 27.6766C103.72 30.3806 101.26 32.5453 98.4924 32.8633C102.064 32.5886 105.902 34.504 107.2 37.8414C108.497 41.1788 106.462 45.6049 102.934 46.2103C104.582 46.6046 105.465 48.6319 105.004 50.2625C104.544 51.893 103.071 53.0784 101.479 53.6609C98.5458 54.7369 95.0278 53.9865 92.7894 51.8065C90.5509 49.6265 89.7089 46.1289 90.706 43.1705C88.5769 45.3658 84.9979 45.9941 82.2481 44.6535C79.4983 43.313 77.7889 40.1079 78.2061 37.0757C77.3641 40.118 74.332 42.4049 71.1778 42.3794C68.0235 42.354 65.0295 40.0137 64.2384 36.9587" stroke="#0055B8" stroke-width="1.27187" stroke-miterlimit="10" stroke-linecap="round" stroke-linejoin="round"/>
<path d="M34.9587 68.1328C34.7476 74.2937 34.9994 80.5335 36.5969 86.4884C38.1969 92.4433 41.2239 98.1337 45.8866 102.168C50.5493 106.202 56.9493 108.421 63.0161 107.317C70.4031 105.973 76.2868 99.9626 79.324 93.0971C82.3613 86.2315 82.9768 78.5647 83.2159 71.0607" stroke="#0055B8" stroke-width="1.27187" stroke-miterlimit="10" stroke-linecap="round" stroke-linejoin="round"/>
<path d="M276.288 55.88C275.329 54.6056 273.49 54.1935 271.967 54.6667C270.443 55.1398 269.237 56.3608 268.477 57.7624C267.716 59.164 267.35 60.7437 267.065 62.3131C266.518 65.3147 266.246 68.4766 267.243 71.3587C267.703 72.689 268.586 74.0423 269.962 74.3399C271.262 74.6198 272.605 73.8236 273.366 72.7323C274.126 71.641 274.431 70.3056 274.719 69.0057" stroke="#0055B8" stroke-width="1.27187" stroke-miterlimit="10" stroke-linecap="round" stroke-linejoin="round"/>
<path d="M323.419 54.6451C323.024 53.3326 324.551 52.0709 325.914 52.2235C327.277 52.3761 328.353 53.4318 329.193 54.518C332.062 58.2216 333.505 63.0013 333.169 67.6716C333.031 69.5845 332.271 71.8357 330.401 72.258C328.552 72.6752 326.84 70.9124 326.369 69.0732C325.899 67.2341 326.235 65.2958 326.082 63.4032" stroke="#0055B8" stroke-width="1.27187" stroke-miterlimit="10" stroke-linecap="round" stroke-linejoin="round"/>
<path d="M280.114 61.7649C277.021 68.7017 273.892 75.7656 272.966 83.3027C272.445 87.5355 272.765 92.2033 275.513 95.4643C278.949 99.5445 284.929 100.122 290.264 100.201C299.645 100.341 309.09 99.8777 318.242 97.8173C321.081 97.1788 324.144 96.2046 325.708 93.7524C326.944 91.8141 326.967 89.3594 326.832 87.0649C326.237 77.0502 323.33 67.1805 318.403 58.4453" stroke="#0055B8" stroke-width="1.27187" stroke-miterlimit="10" stroke-linecap="round" stroke-linejoin="round"/>
<path d="M292.723 70.5577C291.92 70.8705 291.553 71.8982 291.805 72.7224C292.057 73.5465 292.79 74.1545 293.596 74.4623C294.402 74.7675 295.28 74.8184 296.14 74.8438C299.525 74.9507 302.926 74.7853 306.269 74.2359C307.429 74.0451 308.779 73.6432 309.148 72.5265C309.525 71.3818 308.629 70.2422 307.798 69.3672" stroke="#0055B8" stroke-width="1.27187" stroke-miterlimit="10" stroke-linecap="round" stroke-linejoin="round"/>
<path d="M293.426 43.1253C290.892 42.2121 287.959 43.5348 286.309 45.664C284.658 47.7931 284.057 50.5479 283.785 53.2265" stroke="#0055B8" stroke-width="1.27187" stroke-miterlimit="10" stroke-linecap="round" stroke-linejoin="round"/>
<path d="M293.579 39.221C290.715 38.3052 287.443 38.7783 284.956 40.4674C282.47 42.1564 280.825 45.0258 280.621 48.0248" stroke="#0055B8" stroke-width="1.27187" stroke-miterlimit="10" stroke-linecap="round" stroke-linejoin="round"/>
<path d="M292.876 34.9953C291.533 33.347 289.236 32.6398 287.13 32.9374C285.024 33.235 283.116 34.428 281.653 35.9721C280.191 37.5161 279.135 39.4011 278.234 41.3267" stroke="#0055B8" stroke-width="1.27187" stroke-miterlimit="10" stroke-linecap="round" stroke-linejoin="round"/>
<path d="M298.629 42.4789C300.046 39.5714 303.32 37.7628 306.553 37.8341C309.786 37.9027 312.866 39.7215 314.741 42.3568C316.616 44.9921 317.325 48.3626 316.985 51.5779" stroke="#0055B8" stroke-width="1.27187" stroke-miterlimit="10" stroke-linecap="round" stroke-linejoin="round"/>
<path d="M300.051 36.8524C302.989 33.3624 308.071 31.8464 312.441 33.1513C316.811 34.4562 320.228 38.516 320.767 43.0464" stroke="#0055B8" stroke-width="1.27187" stroke-miterlimit="10" stroke-linecap="round" stroke-linejoin="round"/>
<path d="M300.469 33.4143C301.725 28.9577 304.813 25.0505 308.855 22.7942C312.897 20.5379 317.845 19.963 322.297 21.2323" stroke="#0055B8" stroke-width="1.27187" stroke-miterlimit="10" stroke-linecap="round" stroke-linejoin="round"/>
<path d="M290.671 58.7633C290.01 60.6406 289.765 62.6628 289.959 64.6444C289.984 64.9064 290.083 65.2346 290.345 65.2549C290.559 65.2727 290.717 65.0641 290.819 64.8759C291.945 62.8409 292.23 60.3557 291.594 58.1172" stroke="#0055B8" stroke-width="1.27187" stroke-miterlimit="10" stroke-linecap="round" stroke-linejoin="round"/>
<path d="M308.709 57.9543C308.304 60.3556 308.849 62.9044 310.197 64.9292C311.034 62.2049 310.848 59.1778 309.683 56.5781" stroke="#0055B8" stroke-width="1.27187" stroke-miterlimit="10" stroke-linecap="round" stroke-linejoin="round"/>
<path d="M296.247 81.4631C295.298 82.1804 295.112 83.6685 295.746 84.6758C296.379 85.6831 297.689 86.1639 298.859 85.9451C300.029 85.7289 301.032 84.8869 301.594 83.8364C302.174 85.4516 304.435 86.169 305.839 85.1795C307.243 84.1899 307.33 81.8192 306.005 80.7305" stroke="#0055B8" stroke-width="1.27187" stroke-miterlimit="10" stroke-linecap="round" stroke-linejoin="round"/>
<path d="M308.938 76.893C311.018 75.6466 313.097 74.4001 315.177 73.1562" stroke="#0055B8" stroke-width="1.27187" stroke-miterlimit="10" stroke-linecap="round" stroke-linejoin="round"/>
<path d="M292.218 79.0401C290.316 77.6079 287.601 77.3408 285.457 78.3761" stroke="#0055B8" stroke-width="1.27187" stroke-miterlimit="10" stroke-linecap="round" stroke-linejoin="round"/>
<path d="M311.211 79.2305C312.043 79.7138 312.877 80.1945 313.709 80.6779" stroke="#0055B8" stroke-width="1.27187" stroke-miterlimit="10" stroke-linecap="round" stroke-linejoin="round"/>
<path d="M291.091 81.1866C289.39 80.6982 287.4 81.8581 286.988 83.5802" stroke="#0055B8" stroke-width="1.27187" stroke-miterlimit="10" stroke-linecap="round" stroke-linejoin="round"/>
<path d="M170.799 49.7773C168.09 58.5227 166.162 67.5123 165.048 76.5985C164.977 77.1683 164.933 77.8144 165.31 78.2494C165.702 78.6971 166.376 78.7276 166.971 78.7225C170.061 78.6971 173.152 78.6742 176.243 78.6488C175.79 77.7203 175.52 76.6697 175.698 75.6522C175.876 74.6348 176.566 73.6732 177.55 73.3629C178.535 73.0525 179.761 73.5562 180.084 74.5381C180.407 75.52 179.527 76.7384 178.504 76.596" stroke="#0055B8" stroke-width="1.27187" stroke-miterlimit="10" stroke-linecap="round" stroke-linejoin="round"/>
<path d="M166.408 78.8516C166.1 80.3625 166.018 81.9219 166.163 83.4557" stroke="#0055B8" stroke-width="1.27187" stroke-miterlimit="10" stroke-linecap="round" stroke-linejoin="round"/>
<path d="M168.359 78.8555C168.224 80.575 168.092 82.2946 167.957 84.0142" stroke="#0055B8" stroke-width="1.27187" stroke-miterlimit="10" stroke-linecap="round" stroke-linejoin="round"/>
<path d="M170.279 79.1367C170.243 80.345 170.207 81.5533 170.172 82.7615" stroke="#0055B8" stroke-width="1.27187" stroke-miterlimit="10" stroke-linecap="round" stroke-linejoin="round"/>
<path d="M172.288 78.8594C172.243 80.2533 172.194 81.6473 172.148 83.0413" stroke="#0055B8" stroke-width="1.27187" stroke-miterlimit="10" stroke-linecap="round" stroke-linejoin="round"/>
<path d="M174.102 79C174.102 80.5339 174.102 82.0677 174.102 83.6016" stroke="#0055B8" stroke-width="1.27187" stroke-miterlimit="10" stroke-linecap="round" stroke-linejoin="round"/>
<path d="M175.741 78.7109C175.573 80.0159 175.68 81.3564 176.059 82.6156" stroke="#0055B8" stroke-width="1.27187" stroke-miterlimit="10" stroke-linecap="round" stroke-linejoin="round"/>
<path d="M157.715 49.537C162.467 46.3014 166.096 41.4454 167.852 35.9688" stroke="#0055B8" stroke-width="1.27187" stroke-miterlimit="10" stroke-linecap="round" stroke-linejoin="round"/>
<path d="M175.172 32.3482C177.365 32.3101 179.178 34.1187 180.17 36.0723C181.162 38.0259 181.62 40.2262 182.691 42.1391C183.762 44.052 185.761 45.7258 187.931 45.4231" stroke="#0055B8" stroke-width="1.27187" stroke-miterlimit="10" stroke-linecap="round" stroke-linejoin="round"/>
<path d="M159.906 52.7603C160.601 54.2534 162.628 54.7088 164.19 54.1822C165.752 53.6557 166.95 52.4169 168.082 51.2188" stroke="#0055B8" stroke-width="1.27187" stroke-miterlimit="10" stroke-linecap="round" stroke-linejoin="round"/>
<path d="M177.582 50.6668C177.923 51.9946 179.22 52.9409 180.581 53.1189C181.939 53.297 183.321 52.8086 184.455 52.0378C185.59 51.2671 186.513 50.2318 187.406 49.1914" stroke="#0055B8" stroke-width="1.27187" stroke-miterlimit="10" stroke-linecap="round" stroke-linejoin="round"/>
<path d="M173.89 85.1383C173.88 84.9984 173.87 84.861 173.859 84.7211C174.416 85.703 174.559 86.9087 174.249 87.9923C174.121 88.4349 173.959 88.9997 174.322 89.2795C174.559 89.4626 174.895 89.4067 175.185 89.3354C179.127 88.379 182.811 86.3796 185.762 83.5942C186.278 83.1058 186.815 82.3834 186.489 81.75" stroke="#0055B8" stroke-width="1.27187" stroke-miterlimit="10" stroke-linecap="round" stroke-linejoin="round"/>
<path d="M185.289 79.872C186.032 79.1343 187.263 78.9436 188.191 79.4243C189.122 79.9051 189.677 81.0192 189.504 82.052" stroke="#0055B8" stroke-width="1.27187" stroke-miterlimit="10" stroke-linecap="round" stroke-linejoin="round"/>
<path d="M201.637 54.838C202.25 53.65 203.051 52.5104 204.183 51.8007C205.315 51.091 206.834 50.8824 207.994 51.5489C209.487 52.4087 209.939 54.3597 209.904 56.0844C209.866 57.8676 209.461 59.6431 208.718 61.2685C208.365 62.0418 207.922 62.7973 207.263 63.3315C206.605 63.8657 205.689 64.143 204.883 63.8759C204.076 63.6062 203.483 62.6956 203.728 61.8841" stroke="#0055B8" stroke-width="1.27187" stroke-miterlimit="10" stroke-linecap="round" stroke-linejoin="round"/>
<path d="M161.319 28.5672C160.344 25.7564 162.224 22.7548 164.399 20.7274C166.07 19.1707 168.128 17.8123 170.415 17.7818C173.841 17.736 176.535 20.5825 178.687 23.2483C180.839 25.9141 183.327 28.8623 186.743 29.1472C188.717 29.3126 190.673 28.5087 192.263 27.3284C193.853 26.1481 195.132 24.6066 196.397 23.0804" stroke="#0055B8" stroke-width="1.27187" stroke-miterlimit="10" stroke-linecap="round" stroke-linejoin="round"/>
<path d="M172.164 14.8631C175.28 13.9804 178.874 15.1429 180.881 17.6841C182.141 19.2765 182.939 21.4412 184.822 22.2043C186.363 22.8301 188.185 22.2425 189.454 21.169C190.723 20.0956 191.558 18.6049 192.364 17.1499" stroke="#0055B8" stroke-width="1.27187" stroke-miterlimit="10" stroke-linecap="round" stroke-linejoin="round"/>
<path d="M159.996 60.4883C163.936 71.4671 157.414 84.4503 162.329 95.0297C165.475 101.806 173.178 105.98 180.633 105.515C188.089 105.049 194.983 100.267 198.592 93.7273C202.202 87.1874 202.649 79.1237 200.401 71.9987" stroke="#0055B8" stroke-width="1.27187" stroke-miterlimit="10" stroke-linecap="round" stroke-linejoin="round"/>
</svg>
