<?xml version="1.0" encoding="utf-8"?>
<!-- Generator: Adobe Illustrator 23.0.2, SVG Export Plug-In . SVG Version: 6.00 Build 0)  -->
<svg version="1.1" id="Layer_1" xmlns="http://www.w3.org/2000/svg" xmlns:xlink="http://www.w3.org/1999/xlink" x="0px" y="0px"
	 viewBox="0 0 111 46" style="enable-background:new 0 0 111 46;" xml:space="preserve">
<style type="text/css">
	.st0{fill:#00AD50;}
	.st1{fill:#005640;}
</style>
<g>
	<g>
		<g>
			<path class="st0" d="M11.1,22.6c0-2.2-0.8-3.3-2.6-3.3c-1.9,0-2.8,1.5-2.8,3.3v11.9H0.3V14.8h4.1L5,17.6h0.1
				c1-1.8,2.6-3.3,5.2-3.3c2.7,0,4.4,1.3,5.3,3.4c1.2-2.1,3.1-3.4,5.5-3.4c4.1,0,6.1,2.9,6.1,7.1v13.1h-5.3v-12
				c0-2.2-0.7-3.3-2.6-3.3c-1.8,0-2.8,1.4-2.8,3.1v12.1h-5.4V22.6z"/>
			<path class="st1" d="M37,17.9c1.2-2.1,3.5-3.6,6.2-3.6c4.4,0,8.5,4.1,8.5,10.4c0,6.4-3.9,10.4-8.4,10.4c-2.5,0-4.9-1.4-6-3.4
				v10.4h-5.4V14.8h4.5L37,17.9z M46.3,24.7c0-3.1-2-5.4-4.6-5.4c-2.6,0-4.5,2.2-4.5,5.4c0,3.1,1.9,5.4,4.5,5.4
				C44.3,30.1,46.3,27.8,46.3,24.7z"/>
			<path class="st1" d="M68.6,31.5c-1.2,2.1-3.5,3.6-6.3,3.6c-4.3,0-8.4-4.1-8.4-10.3c0-6.3,4.2-10.4,8.4-10.4c2.8,0,5,1.5,6.3,3.6
				l0.5-3.1h4.5v19.8h-4.5L68.6,31.5z M63.9,19.3c-2.6,0-4.6,2.3-4.6,5.4c0,3.1,2,5.4,4.6,5.4c2.6,0,4.5-2.3,4.5-5.4
				C68.4,21.6,66.5,19.3,63.9,19.3z"/>
			<path class="st1" d="M77.3,14.8h4.3l0.5,3h0.1c1.3-2.4,3.5-3.2,5.2-3.2c0.5,0,1,0.1,1.4,0.2V20c-2.8-0.6-6.1,0.3-6.1,4.9v9.8
				h-5.4V14.8z"/>
			<path class="st1" d="M97.3,25.1v9.5h-5.4V5.9h5.4v17.9l7-9h6.3l-7.5,9.4l7.8,10.4h-6.6L97.3,25.1z"/>
		</g>
	</g>
</g>
</svg>
